<svg id="レイヤー_1" data-name="レイヤー 1" xmlns="http://www.w3.org/2000/svg" viewBox="0 0 504 504"><defs><style>.cls-1{fill:#fff;}</style></defs><path class="cls-1" d="M335,504H169a32.1,32.1,0,0,0-4.72-.8c-19.48-.58-38.92-1.46-57.94-6.23C63.42,486.2,32.2,461.31,14.5,420.38,4.9,398.19,2.11,374.6,1.14,350.7.92,345.46.39,340.23,0,335V169a32.1,32.1,0,0,0,.8-4.72C1.38,144.8,2.26,125.36,7,106.34,17.8,63.42,42.69,32.2,83.62,14.5,105.81,4.9,129.4,2.11,153.3,1.14,158.54.92,163.77.39,169,0H335a32.1,32.1,0,0,0,4.72.8c19.48.58,38.92,1.46,57.94,6.23C440.58,17.8,471.8,42.69,489.5,83.62c9.6,22.19,12.38,45.78,13.36,69.68.22,5.24.75,10.47,1.14,15.7V335a32.1,32.1,0,0,0-.8,4.72c-.58,19.48-1.46,38.92-6.23,57.94-10.77,42.92-35.66,74.14-76.59,91.84-22.19,9.6-45.78,12.38-69.68,13.36C345.46,503.08,340.23,503.61,335,504ZM45.06,251.74h.78c0,21.16-.41,42.32.12,63.47.48,19.62,1.24,39.29,3.22,58.8,1.92,19,8.57,36.5,21.43,51.24,17.83,20.43,41.31,29,67.29,30.54,29.23,1.77,58.56,2.24,87.85,2.59q44.73.54,89.47-.35c19.62-.39,39.29-1.25,58.8-3.22,19-1.91,36.5-8.57,51.24-21.44,20.43-17.82,29-41.31,30.54-67.28,1.77-29.23,2.24-58.56,2.59-87.86q.54-44.71-.35-89.46c-.39-19.62-1.24-39.29-3.22-58.8-1.92-19-8.57-36.5-21.43-51.24-17.83-20.43-41.31-29-67.29-30.54-29.73-1.78-59.56-2.23-89.35-2.59-29.15-.36-58.33-.37-87.47.39-21.76.56-43.74,1-65.18,4.3C87.47,56,62.56,77.05,52.65,113.41a165,165,0,0,0-5.43,36.93C46,184.12,45.71,217.94,45.06,251.74Z"/><path class="cls-1" d="M381.51,252.22c-.06,71.62-58.17,129.42-130,129.29-71.35-.14-129.11-58.21-129-129.73a129.43,129.43,0,0,1,130-129.29C323.84,122.64,381.56,180.67,381.51,252.22ZM251.86,335.83c45.91,0,83.92-37.49,84-82.81.05-46.76-37.14-84.81-82.94-84.85-46.92,0-84.71,37.24-84.72,83.56S205.66,335.83,251.86,335.83Z"/><path class="cls-1" d="M416.84,117.51a30.4,30.4,0,1,1-30.51-30.35A30.43,30.43,0,0,1,416.84,117.51Z"/></svg>