<svg id="undraw_Designer_re_5v95" xmlns="http://www.w3.org/2000/svg" width="213.112" height="207.118" viewBox="0 0 213.112 207.118">
  <path id="パス_136" data-name="パス 136" d="M428.928,150.732a100.851,100.851,0,0,0-6.628-10.4q-2.543-3.5-5.374-6.772h0a101.57,101.57,0,0,0-11.11-11q-1.222-1.038-2.477-2.033A100.912,100.912,0,0,0,378.463,106l.079,13.067.856,148.959H305.233l-4.171-148.678.311-12.859A101.179,101.179,0,0,0,242.766,225.3a99.383,99.383,0,0,0,3.351,10.44q.708,1.859,1.495,3.686c.253.593.51,1.181.777,1.766.342.765.7,1.528,1.065,2.281q.425.889.874,1.766.577,1.151,1.193,2.283c.316.593.642,1.181.973,1.766a101.443,101.443,0,0,0,20.173,25.231q3.432,3.113,7.143,5.9a101.049,101.049,0,0,0,121.406,0q2.019-1.516,3.955-3.133,1.286-1.07,2.529-2.18c.22-.2.439-.392.656-.59a101.454,101.454,0,0,0,18.9-23.049,99.139,99.139,0,0,0,5.119-9.719q.606-1.318,1.174-2.659a99.641,99.641,0,0,0,4.387-12.607q.273-1,.527-2v0c.028-.116.059-.234.087-.349.175-.7.342-1.412.5-2.12v0q.779-3.425,1.315-6.933c.045-.3.09-.6.132-.9.016-.109.033-.217.045-.326v0q.383-2.71.621-5.459.368-4.318.371-8.735A100.566,100.566,0,0,0,428.928,150.732Z" transform="translate(-228.43 -93.566)" fill="#f2f2f2"/>
  <path id="パス_137" data-name="パス 137" d="M836.741,611.033c5.98-8.08,8.28-19.461,3.628-28.372a46.313,46.313,0,0,1-21.927,23.028c-3.785,1.856-8.189,3.526-9.941,7.36a10.353,10.353,0,0,0-.006,7.675,30.747,30.747,0,0,0,3.842,6.842l.078.65C821.7,624.366,830.761,619.113,836.741,611.033Z" transform="translate(-646.165 -443.959)" fill="#e6e6e6"/>
  <path id="パス_138" data-name="パス 138" d="M853.426,582.285a39.586,39.586,0,0,1-8.235,22.921,17.046,17.046,0,0,1-3.821,3.732,9.777,9.777,0,0,1-4.888,1.608,20.234,20.234,0,0,0-4.867.556,5.987,5.987,0,0,0-3.582,3.338,15.556,15.556,0,0,0-1.049,6.1c-.059,2.3-.084,4.689-1.169,6.779-.131.253.269.442.4.189,1.887-3.637.662-7.889,1.786-11.713a6.063,6.063,0,0,1,3.371-4.135A15.7,15.7,0,0,1,836.3,611a10.434,10.434,0,0,0,4.838-1.394,15.757,15.757,0,0,0,3.95-3.571,38.4,38.4,0,0,0,6.016-10.387,40.286,40.286,0,0,0,2.758-13.4C853.876,581.962,853.435,582,853.426,582.285Z" transform="translate(-659.42 -443.511)" fill="#fff"/>
  <path id="パス_139" data-name="パス 139" d="M905.361,656.939a5.939,5.939,0,0,0,7.564-1.389c.18-.221-.156-.511-.336-.289a5.5,5.5,0,0,1-7.039,1.277C905.3,656.4,905.116,656.8,905.361,656.939Z" transform="translate(-717.828 -497.268)" fill="#fff"/>
  <path id="パス_140" data-name="パス 140" d="M866.9,665.91a11.446,11.446,0,0,1,.844-8.3c.13-.254-.27-.443-.4-.19a11.907,11.907,0,0,0-.86,8.638C866.559,666.334,866.976,666.184,866.9,665.91Z" transform="translate(-689.006 -498.826)" fill="#fff"/>
  <path id="パス_141" data-name="パス 141" d="M918.2,610.484a3.362,3.362,0,0,1-2.2-2.314c-.074-.276-.491-.125-.417.149a3.767,3.767,0,0,0,2.424,2.565.229.229,0,0,0,.295-.105A.223.223,0,0,0,918.2,610.484Z" transform="translate(-725.426 -462.603)" fill="#fff"/>
  <path id="パス_142" data-name="パス 142" d="M784.848,555.891c.041.174.082.347.121.523a44.276,44.276,0,0,1,1.052,7.1c.015.185.028.372.038.557a46.673,46.673,0,0,1-2.227,17.039,45.33,45.33,0,0,1-2.631,6.364c-1.433,2.833-3.211,5.791-3.613,8.843a7.78,7.78,0,0,0-.077.959l11.869,11.3c.04.012.077.027.117.039l.453.473c.061-.1.122-.209.183-.311.036-.059.069-.121.1-.18.023-.04.046-.081.068-.115.008-.013.015-.027.02-.037.023-.035.04-.07.061-.1q.514-.9,1.016-1.8s0,0,0-.008A66.647,66.647,0,0,0,797.5,592c.041-.152.085-.306.121-.463a43.256,43.256,0,0,0,1.25-6.947,38.226,38.226,0,0,0,.164-3.865,31.8,31.8,0,0,0-1.653-9.8c-2.117-6.3-6.226-11.854-12.083-14.813C785.148,556.038,785,555.964,784.848,555.891Z" transform="translate(-623.931 -424.281)" fill="#e6e6e6"/>
  <path id="パス_143" data-name="パス 143" d="M801.723,555.5a39.586,39.586,0,0,1,7.225,23.259,17.048,17.048,0,0,1-.8,5.28,9.778,9.778,0,0,1-2.935,4.227,20.234,20.234,0,0,0-3.551,3.374,5.987,5.987,0,0,0-.85,4.822,15.553,15.553,0,0,0,2.835,5.5c1.337,1.871,2.756,3.794,3.148,6.116.048.281.481.191.434-.09-.683-4.04-4.222-6.7-5.625-10.427a6.063,6.063,0,0,1,.2-5.332,15.7,15.7,0,0,1,3.539-3.494,10.433,10.433,0,0,0,3.024-4.026,15.762,15.762,0,0,0,1-5.23,38.408,38.408,0,0,0-1.45-11.915,40.287,40.287,0,0,0-5.867-12.363C801.888,554.971,801.56,555.269,801.723,555.5Z" transform="translate(-640.923 -423.713)" fill="#fff"/>
  <path id="パス_144" data-name="パス 144" d="M832.022,617.9a5.939,5.939,0,0,0,5.2-5.663c.01-.285-.432-.314-.442-.029a5.5,5.5,0,0,1-4.851,5.258C831.65,617.5,831.741,617.937,832.022,617.9Z" transform="translate(-663.809 -465.534)" fill="#fff"/>
  <path id="パス_145" data-name="パス 145" d="M807.331,658.231a11.447,11.447,0,0,1-4.323-7.135c-.049-.281-.482-.191-.434.09a11.907,11.907,0,0,0,4.514,7.415C807.315,658.775,807.557,658.4,807.331,658.231Z" transform="translate(-642.351 -494.139)" fill="#fff"/>
  <path id="パス_146" data-name="パス 146" d="M812.112,585.209a3.362,3.362,0,0,1-3.146-.525c-.225-.176-.467.2-.243.37a3.767,3.767,0,0,0,3.479.589.229.229,0,0,0,.172-.262A.223.223,0,0,0,812.112,585.209Z" transform="translate(-646.808 -445.412)" fill="#fff"/>
  <path id="パス_147" data-name="パス 147" d="M202.48,439.648c-5.3-8.539-6.671-20.07-1.31-28.573a46.314,46.314,0,0,0,19.983,24.734c3.622,2.157,7.875,4.18,9.31,8.144a10.353,10.353,0,0,1-.618,7.651,30.748,30.748,0,0,1-4.385,6.507l-.13.642C216.388,454.16,207.784,448.187,202.48,439.648Z" transform="translate(-197.764 -317.828)" fill="#e6e6e6"/>
  <path id="パス_148" data-name="パス 148" d="M210,410.7a39.586,39.586,0,0,0,6.345,23.515,17.047,17.047,0,0,0,3.505,4.03,9.778,9.778,0,0,0,4.741,2,20.238,20.238,0,0,1,4.805.95,5.987,5.987,0,0,1,3.3,3.618,15.554,15.554,0,0,1,.55,6.165c-.128,2.3-.3,4.68.614,6.852.11.263-.3.419-.415.156-1.585-3.778-.018-7.917-.829-11.819a6.063,6.063,0,0,0-3.024-4.4,15.7,15.7,0,0,0-4.86-1.057,10.433,10.433,0,0,1-4.709-1.782,15.761,15.761,0,0,1-3.647-3.881,38.406,38.406,0,0,1-5.152-10.841,40.288,40.288,0,0,1-1.66-13.583c.014-.284.451-.208.437.074Z" transform="translate(-206.401 -317.368)" fill="#fff"/>
  <path id="パス_149" data-name="パス 149" d="M208.568,485.487a5.939,5.939,0,0,1-7.426-2c-.161-.235.2-.5.358-.261a5.5,5.5,0,0,0,6.912,1.845C208.668,484.95,208.823,485.365,208.568,485.487Z" transform="translate(-200.217 -370.798)" fill="#fff"/>
  <path id="パス_150" data-name="パス 150" d="M262.771,498.908a11.447,11.447,0,0,0-.166-8.341c-.109-.263.305-.419.415-.156a11.907,11.907,0,0,1,.156,8.68C263.075,499.358,262.672,499.174,262.771,498.908Z" transform="translate(-245.414 -376.046)" fill="#fff"/>
  <path id="パス_151" data-name="パス 151" d="M212.772,439.778a3.362,3.362,0,0,0,2.377-2.128c.1-.269.5-.085.4.183a3.767,3.767,0,0,1-2.624,2.36.229.229,0,0,1-.285-.129A.223.223,0,0,1,212.772,439.778Z" transform="translate(-208.691 -337.266)" fill="#fff"/>
  <path id="パス_152" data-name="パス 152" d="M292.78,394.606c-.055.17-.11.339-.163.512a44.272,44.272,0,0,0-1.626,7c-.03.183-.058.369-.083.552a46.675,46.675,0,0,0,.834,17.164,45.328,45.328,0,0,0,2.105,6.557c1.2,2.94,2.73,6.033,2.882,9.107a7.778,7.778,0,0,1,0,.962l-12.748,10.3c-.041.009-.079.021-.12.03l-.49.434c-.052-.107-.1-.218-.157-.325-.031-.062-.058-.126-.089-.188-.02-.042-.039-.084-.059-.121-.007-.014-.013-.028-.017-.039-.02-.037-.035-.073-.052-.107q-.439-.936-.866-1.881s0,0,0-.008a66.644,66.644,0,0,1-4.89-14.979c-.029-.155-.06-.312-.083-.471a43.252,43.252,0,0,1-.681-7.025,38.248,38.248,0,0,1,.15-3.866,31.8,31.8,0,0,1,2.444-9.636c2.622-6.108,7.169-11.309,13.246-13.782C292.469,394.727,292.622,394.666,292.78,394.606Z" transform="translate(-255.62 -305.721)" fill="#e6e6e6"/>
  <path id="パス_153" data-name="パス 153" d="M311.345,394.209a39.586,39.586,0,0,0-9.091,22.6,17.046,17.046,0,0,0,.372,5.328,9.777,9.777,0,0,0,2.582,4.451,20.238,20.238,0,0,1,3.265,3.652,5.987,5.987,0,0,1,.456,4.875,15.554,15.554,0,0,1-3.273,5.253c-1.485,1.757-3.055,3.558-3.635,5.84-.07.277-.5.151-.425-.125,1.009-3.971,4.752-6.333,6.454-9.936a6.063,6.063,0,0,0,.232-5.33,15.7,15.7,0,0,0-3.244-3.771,10.433,10.433,0,0,1-2.687-4.258,15.76,15.76,0,0,1-.576-5.294,38.407,38.407,0,0,1,2.414-11.758,40.288,40.288,0,0,1,6.852-11.845c.182-.218.485.105.3.322Z" transform="translate(-274.083 -305.139)" fill="#fff"/>
  <path id="パス_154" data-name="パス 154" d="M291.086,453.049a5.939,5.939,0,0,1-4.726-6.067.222.222,0,0,1,.443.007,5.5,5.5,0,0,0,4.408,5.635C291.49,452.681,291.364,453.105,291.086,453.049Z" transform="translate(-262.886 -344.068)" fill="#fff"/>
  <path id="パス_155" data-name="パス 155" d="M312.494,496.379a11.447,11.447,0,0,0,4.889-6.76c.071-.276.5-.151.425.125a11.906,11.906,0,0,1-5.1,7.024C312.466,496.922,312.255,496.532,312.494,496.379Z" transform="translate(-282.024 -375.451)" fill="#fff"/>
  <path id="パス_156" data-name="パス 156" d="M318.237,423.217a3.362,3.362,0,0,0,3.179-.268c.239-.157.449.233.212.389a3.767,3.767,0,0,1-3.516.3.229.229,0,0,1-.15-.275A.223.223,0,0,1,318.237,423.217Z" transform="translate(-286.115 -326.529)" fill="#fff"/>
  <circle id="楕円形_29" data-name="楕円形 29" cx="14.036" cy="14.036" r="14.036" transform="translate(89.13 6.582)" fill="#ff6584"/>
  <path id="パス_157" data-name="パス 157" d="M622.625,104.77a51.591,51.591,0,0,0-4-3.8,30.593,30.593,0,0,0-9.136-5.533,21.066,21.066,0,0,0-3.92-1.032c-.161-.026-.319-.052-.479-.073a.178.178,0,0,0-.035,0,.426.426,0,0,0-.076-.014c-.328-.043-.656-.076-.987-.1a17.1,17.1,0,0,0-5.3.477,17.624,17.624,0,0,0-2.928,1.02,26.22,26.22,0,0,0-2.746,1.556,16.5,16.5,0,0,1-1.464.791,18.261,18.261,0,0,1-4.6,1.473,20.676,20.676,0,0,1-3.259.321,7.888,7.888,0,0,0-2.744.394,6.576,6.576,0,0,0-4.007,4.34.423.423,0,0,0,.189.465c.243.175.479.373.737.529a2.312,2.312,0,0,0,.718.2q.609.128,1.221.248,2.249.446,4.517.791,4.562.691,9.176.973a.459.459,0,0,0,.057,0,103.272,103.272,0,0,0,10.437.1c.526-.021,1.051-.047,1.577-.078q3.291-.184,6.565-.581,3.028-.368,6.033-.914,2.146-.39,4.276-.869a.418.418,0,0,0,.182-.692Z" transform="translate(-476.483 -84.884)" fill="#e6e6e6"/>
  <path id="パス_158" data-name="パス 158" d="M512.5,175.42a45.848,45.848,0,0,0-6.685-5.884c-.8-.562-1.625-1.091-2.472-1.575a26.206,26.206,0,0,0-3.23-1.58c-.248-.1-.5-.2-.749-.29a20.926,20.926,0,0,0-4.4-1.105c-.012,0-.024,0-.035,0l-.073-.014a16.25,16.25,0,0,0-2.2-.135c-.527,0-1.055.028-1.58.08a17.469,17.469,0,0,0-2.513.434c-.409.1-.815.22-1.214.354a17.34,17.34,0,0,0-1.712.666l-.026.012a25.508,25.508,0,0,0-2.72,1.544l-.059.035a17.159,17.159,0,0,1-3.136,1.469,19.1,19.1,0,0,1-2.876.76,20.367,20.367,0,0,1-3.259.319,7.814,7.814,0,0,0-2.742.4,6.579,6.579,0,0,0-4.01,4.34.426.426,0,0,0,.189.465c.243.175.482.371.737.527a2.266,2.266,0,0,0,.718.2c.406.085.812.17,1.221.25q2.249.446,4.52.789,3.113.471,6.253.753,1.488.138,2.978.227,3.822.23,7.651.179.79-.011,1.58-.035,4.69-.138,9.351-.7a102.85,102.85,0,0,0,10.307-1.783.416.416,0,0,0,.182-.689Z" transform="translate(-395.529 -136.818)" fill="#e6e6e6"/>
  <path id="パス_159" data-name="パス 159" d="M472.918,62.068l12.366,170.881-24.731,2.2V64.242C463.5,61.94,467.73,61.58,472.918,62.068Z" transform="translate(-390.938 -61.136)" fill="#ccc"/>
  <path id="パス_160" data-name="パス 160" d="M703.333,62.068,690.968,232.949l24.731,2.2V64.242C712.752,61.94,708.522,61.58,703.333,62.068Z" transform="translate(-560.314 -61.136)" fill="#ccc"/>
  <path id="パス_161" data-name="パス 161" d="M543.253,62.257a4.764,4.764,0,0,0-4.286-3.181H460.342c-2.623,0-4.756,2.517-4.756,5.614V234.533a6.069,6.069,0,0,0,1.639,4.237A4.506,4.506,0,0,0,459.284,240a3.93,3.93,0,0,0,1.058.142h78.626a3.929,3.929,0,0,0,1.058-.142,5.5,5.5,0,0,0,3.7-5.472V64.691A6.447,6.447,0,0,0,543.253,62.257Zm-1.107,172.275a3.506,3.506,0,0,1-3.178,3.752H460.342a3.312,3.312,0,0,1-3.058-2.732,4.357,4.357,0,0,1-.12-1.02V64.691a3.5,3.5,0,0,1,3.178-3.749h78.626a2.7,2.7,0,0,1,.945.17,3.735,3.735,0,0,1,2.234,3.579Z" transform="translate(-387.286 -59.077)" fill="#ccc"/>
  <rect id="長方形_55" data-name="長方形 55" width="86.56" height="1.579" transform="translate(69.089 51.626)" fill="#ccc"/>
  <rect id="長方形_56" data-name="長方形 56" width="86.56" height="1.579" transform="translate(69.089 19.039)" fill="#ccc"/>
  <rect id="長方形_57" data-name="長方形 57" width="86.56" height="1.579" transform="translate(69.089 77.936)" fill="#ccc"/>
  <rect id="長方形_58" data-name="長方形 58" width="1.579" height="99.591" transform="translate(95.6 0.708)" fill="#ccc"/>
  <rect id="長方形_59" data-name="長方形 59" width="1.579" height="99.591" transform="translate(127.559 0.708)" fill="#ccc"/>
  <path id="パス_162" data-name="パス 162" d="M515.2,705.353H411.543a7.111,7.111,0,0,0-7.1,7.1,7.114,7.114,0,0,0,7.1,7.105H515.2a7.1,7.1,0,0,0,6.13-3.518,6.857,6.857,0,0,0,.463-.945,7.031,7.031,0,0,0,.512-2.642,7.113,7.113,0,0,0-7.105-7.1Z" transform="translate(-349.69 -534.149)" fill="#ccc"/>
  <rect id="長方形_60" data-name="長方形 60" width="86.033" height="5.262" transform="translate(69.615 96.616)" fill="#ccc"/>
  <path id="パス_163" data-name="パス 163" d="M414.162,358.755h1.579a2.894,2.894,0,0,1,2.894,2.894h-7.367A2.894,2.894,0,0,1,414.162,358.755Z" transform="translate(-302.319 -263.717)" fill="#ccc"/>
  <circle id="ab6171fa-7d69-4734-b81c-8dff60f9761b" cx="16.305" cy="16.305" r="16.305" transform="translate(97.845 78.847)" fill="#ffb8b8"/>
  <path id="bf427902-b9bf-4946-b5d7-5c1c7e04535e" d="M553.946,330.725c.123-1.872,1.362-3.788,5.3-4.79,0,0,6.751-8.633,15.926-4.106,0,0,4.448-.765,7.746,3.849,0,0,3.27-1.928,4.649,1.49,0,0,3.835,6.973,2.423,14.084s-2.135,8-2.135,8,1.8-14.711-8.566-13.691-18.711-2.625-21.058,5.356c-1.949,6.627-1.7,10.069-1.7,10.069s-6.518-6.611-4.3-11.817A25.726,25.726,0,0,0,553.946,330.725Z" transform="translate(-457.985 -251.259)" fill="#2f2e41"/>
  <path id="パス_164" data-name="パス 164" d="M461.292,570.618h90.185c-.6-6.879-1-33.176-1-34.907,0-7.634-6.246-15.964-6.246-15.964L542,518.511l-18.671-5.825-4.832-6.277a5.373,5.373,0,0,0-4.3-2.1l-15.264.115a5.389,5.389,0,0,0-3.62,1.434l-9.452,8.768-13.863,6.62-.024-.024-.145.108-2.057,1.482-1.323.956s-3.472,4.165-6.246,16.658C461.78,542.3,461.487,566.628,461.292,570.618Z" transform="translate(-391.481 -386.362)" fill="#3dd8cc"/>
  <path id="パス_165" data-name="パス 165" d="M504,742.14c-.217.2-.437.394-.656.59q-1.247,1.109-2.529,2.18-1.938,1.615-3.955,3.134H375.456q-3.708-2.784-7.143-5.9Z" transform="translate(-323.133 -561.191)" fill="#ccc"/>
  <path id="パス_166" data-name="パス 166" d="M390.933,675.963H346.3l.944-4.487h42.74Z" transform="translate(-254.564 -493.596)" fill="#2f2e41"/>
  <path id="パス_167" data-name="パス 167" d="M819.9,674.4H808.29a1.794,1.794,0,0,0-1.377.638,2.6,2.6,0,0,0-.491-.047,2.755,2.755,0,0,0,0,5.509,2.723,2.723,0,0,0,1.2-.278l.194,2.38.77,9.408a1.715,1.715,0,0,0,.146.338,1.81,1.81,0,0,0,1.589.945h7.551a1.817,1.817,0,0,0,1.592-.945,1.861,1.861,0,0,0,.144-.338l2.031-15.259a1.816,1.816,0,0,0-1.736-2.35Zm-13.481,5.313a1.968,1.968,0,0,1,0-3.936c.035,0,.068.009.1.012a1.8,1.8,0,0,0,.028.961l.831,2.7A1.936,1.936,0,0,1,806.422,679.708Z" transform="translate(-643.158 -511.392)" fill="#3f3d56"/>
  <path id="パス_168" data-name="パス 168" d="M555.337,485.931H481.824a2.386,2.386,0,0,0-2.383,2.383V537.92a2.385,2.385,0,0,0,2.383,2.383h73.514a2.385,2.385,0,0,0,2.383-2.383V488.313a2.386,2.386,0,0,0-2.383-2.383Z" transform="translate(-404.822 -372.853)" fill="#3f3d56"/>
  <path id="パス_169" data-name="パス 169" d="M608.176,635.977h-17.2a.918.918,0,0,0-.916.919v27.167h19.032V636.9a.918.918,0,0,0-.919-.919Zm-8.541,15.436a2.04,2.04,0,0,1-2.031-2.031v-3.134a2.031,2.031,0,0,1,4.062,0v3.134A2.04,2.04,0,0,1,599.635,651.413Z" transform="translate(-486.138 -483.151)" fill="#2f2e41"/>
  <path id="パス_170" data-name="パス 170" d="M589.839,738.717v2.621a.513.513,0,0,0,.512.512h18.126a.515.515,0,0,0,.512-.512v-2.621Z" transform="translate(-485.974 -558.674)" fill="#3f3d56"/>
  <circle id="楕円形_30" data-name="楕円形 30" cx="1.161" cy="1.161" r="1.161" transform="translate(147.791 162.228)" fill="#2f2e41"/>
  <path id="パス_171" data-name="パス 171" d="M522.339,669.493a.406.406,0,0,0-.406.406v2.09a.406.406,0,0,0,.812,0V669.9a.406.406,0,0,0-.406-.406Z" transform="translate(-436.058 -507.788)" fill="#2f2e41"/>
  <path id="パス_172" data-name="パス 172" d="M530.665,669.493a.406.406,0,0,0-.406.406v2.09a.406.406,0,0,0,.812,0V669.9a.406.406,0,0,0-.406-.406Z" transform="translate(-442.178 -507.788)" fill="#2f2e41"/>
  <path id="パス_173" data-name="パス 173" d="M538.99,669.493a.406.406,0,0,0-.406.406v2.09a.406.406,0,0,0,.812,0V669.9a.406.406,0,0,0-.406-.406Z" transform="translate(-448.298 -507.788)" fill="#2f2e41"/>
  <path id="パス_174" data-name="パス 174" d="M547.316,669.493a.406.406,0,0,0-.406.406v2.09a.406.406,0,0,0,.812,0V669.9a.406.406,0,0,0-.406-.406Z" transform="translate(-454.418 -507.788)" fill="#2f2e41"/>
  <circle id="楕円形_31" data-name="楕円形 31" cx="6.14" cy="6.14" r="6.14" transform="translate(88.518 168.907)" fill="#ffb8b8"/>
  <circle id="楕円形_32" data-name="楕円形 32" cx="6.14" cy="6.14" r="6.14" transform="translate(131.409 170.088)" fill="#ffb8b8"/>
  <path id="パス_175" data-name="パス 175" d="M911.726,437.624a4.8,4.8,0,0,0-2.452-2.4c-1.3-.379-2.643.374-3.779,1.118a110.12,110.12,0,0,0-9.8,7.221l0,.039c2.438-.168,4.461,6.314,6.9,6.146,1.761-.121,4-6.91,5.554-7.743a4.529,4.529,0,0,1,1.836-.768,2.951,2.951,0,0,1,2.126,1.151c3.37,3.589,4.346,9.078,8.127,12.231A120.01,120.01,0,0,0,911.726,437.624Z" transform="translate(-710.807 -335.503)" fill="#3f3d56"/>
  <path id="パス_176" data-name="パス 176" d="M895.753,439.842q2.667,4.817,5.658,9.443v0c-.012.109-.028.217-.045.326q-.361-.553-.715-1.11-2.685-4.211-5.1-8.583-1.148-2.079-2.239-4.191-.843-1.636-1.651-3.292c-.154-.316-.3-.633-.451-.952-.349-.746-.694-1.5-1.063-2.234a6.136,6.136,0,0,0-1.7-2.283,2.326,2.326,0,0,0-1.211-.468,3.383,3.383,0,0,0-1.755.5,56.466,56.466,0,0,0-11.105,7.658,57.868,57.868,0,0,0-9.02,10.015c-.08.113-.269,0-.189-.111.319-.449.64-.89.971-1.329a58.144,58.144,0,0,1,14.841-13.842q1.442-.935,2.94-1.783c.5-.286,1.008-.567,1.523-.831a3.714,3.714,0,0,1,1.615-.5c1.96-.031,2.975,2.189,3.672,3.681q.326.7.664,1.407,1.272,2.656,2.642,5.271Q894.87,438.249,895.753,439.842Z" transform="translate(-688.346 -329.003)" fill="#3f3d56"/>
  <path id="パス_177" data-name="パス 177" d="M850.415,443.818l-.342-.381a10.065,10.065,0,0,0-3.114-2.56,4.517,4.517,0,0,0-1.893-.439,5.4,5.4,0,0,0-1.965.429c-.3.118-.585.252-.87.4-.326.164-.645.339-.964.515q-.9.5-1.77,1.036-1.737,1.074-3.366,2.311-.844.642-1.653,1.326-.753.635-1.475,1.3c-.1.1-.257-.059-.154-.154.127-.118.255-.236.384-.352q.544-.492,1.105-.965,1.024-.864,2.1-1.661,1.674-1.24,3.464-2.312.894-.535,1.813-1.025c.185-.1.372-.2.561-.286a8.95,8.95,0,0,1,1.334-.543,4.747,4.747,0,0,1,2.015-.2,5.247,5.247,0,0,1,1.859.643,12.566,12.566,0,0,1,3.083,2.762C850.662,443.768,850.508,443.923,850.415,443.818Z" transform="translate(-664.585 -339.257)" fill="#3f3d56"/>
  <path id="パス_178" data-name="パス 178" d="M861.814,453.051a1.4,1.4,0,0,1-.87-.249c-.674-.511-.656-1.738.054-3.751a4.234,4.234,0,0,1,2.292-2.463,3.923,3.923,0,0,1,3.16-.019q.131.057.258.122h0a9.306,9.306,0,0,1,1.616,1.146,10.672,10.672,0,0,0,1.346.994l.158.093-.15.106C865.852,451.723,863.258,453.051,861.814,453.051Z" transform="translate(-684.899 -343.682)" fill="#3f3d56"/>
  <path id="パス_179" data-name="パス 179" d="M894.253,399.288a5.432,5.432,0,0,1-5.328-4.378,5.431,5.431,0,1,0,6.406,4.271A5.458,5.458,0,0,1,894.253,399.288Z" transform="translate(-702.629 -305.945)" fill="#3f3d56"/>
  <circle id="楕円形_33" data-name="楕円形 33" cx="8.105" cy="8.105" r="8.105" transform="translate(38.136 85.871)" fill="#3f3d56" opacity="0.74"/>
  <circle id="楕円形_34" data-name="楕円形 34" cx="8.105" cy="8.105" r="8.105" transform="translate(46.241 85.871)" fill="#3dd8cc" opacity="0.74"/>
  <circle id="楕円形_35" data-name="楕円形 35" cx="8.105" cy="8.105" r="8.105" transform="translate(42.257 79.412)" fill="#ff6584" opacity="0.74"/>
  <rect id="長方形_61" data-name="長方形 61" width="21.821" height="0.472" transform="translate(50.737 91.734) rotate(-17.441)" fill="#3f3d56"/>
  <circle id="楕円形_36" data-name="楕円形 36" cx="0.945" cy="0.945" r="0.945" transform="translate(70.743 84.399)" fill="#3f3d56"/>
  <path id="パス_180" data-name="パス 180" d="M879.868,536.378a32.163,32.163,0,0,0,4.234,2.72c-.028.116-.059.234-.087.349-.187-.087-.368-.179-.55-.274a51.334,51.334,0,0,1-4.317-2.86,9.315,9.315,0,0,0-2.328-1.167,7.681,7.681,0,0,0-2.661-.312c-3.747.184-6.959,2.42-10.442,3.547a10.623,10.623,0,0,1-5.3.5,17.662,17.662,0,0,1-4.928-2.146,10.851,10.851,0,0,0-5.046-1.7,4.385,4.385,0,0,0-3.811,1.9.177.177,0,0,1-.3-.179,3.715,3.715,0,0,1,.645-.805,5.165,5.165,0,0,1,3.934-1.247,12.781,12.781,0,0,1,5,1.851,14.248,14.248,0,0,0,5.249,2.08,12.059,12.059,0,0,0,5.5-.959c3.384-1.287,6.723-3.431,10.487-3.193A9.208,9.208,0,0,1,879.868,536.378Z" transform="translate(-673.032 -408.533)" fill="#3f3d56"/>
  <path id="パス_181" data-name="パス 181" d="M386.016,281.476v.479a2.488,2.488,0,0,0-.482-.047h-2.47v5.3a2.963,2.963,0,0,1-2.961,2.961h-3.651v.817a2.474,2.474,0,0,0,.191.954h-.505a2.909,2.909,0,0,1-.158-.954v-.817h-2.007V289.7h2.007v-5.3a2.963,2.963,0,0,1,2.961-2.961h3.651v-.826h.472v.826h2.47A2.949,2.949,0,0,1,386.016,281.476Z" transform="translate(-327.293 -221.924)" fill="#3dd8cc"/>
  <path id="パス_182" data-name="パス 182" d="M370.6,269.467h-6.593a2.963,2.963,0,0,0-2.961,2.961v6.593a2.963,2.963,0,0,0,2.961,2.961H370.6a2.963,2.963,0,0,0,2.961-2.961v-6.6A2.962,2.962,0,0,0,370.6,269.467Zm2.489,9.554a2.492,2.492,0,0,1-2.489,2.489h-6.593a2.492,2.492,0,0,1-2.489-2.489v-6.593a2.492,2.492,0,0,1,2.489-2.489H370.6a2.492,2.492,0,0,1,2.489,2.479Z" transform="translate(-317.792 -213.733)" fill="#3f3d56"/>
  <path id="パス_183" data-name="パス 183" d="M381.55,291.994v.472h.472v-.472Zm0,0v.472h.472v-.472Zm10.036-8.225a2.946,2.946,0,0,0-.482-.04h-6.593a2.963,2.963,0,0,0-2.961,2.961v6.593a2.909,2.909,0,0,0,.158.954,2.962,2.962,0,0,0,2.8,2.007H391.1a2.963,2.963,0,0,0,2.961-2.961v-6.593A2.961,2.961,0,0,0,391.585,283.77Zm2.007,9.514a2.492,2.492,0,0,1-2.489,2.489h-6.593a2.492,2.492,0,0,1-2.489-2.489v-6.593a2.492,2.492,0,0,1,2.489-2.489H391.1a2.49,2.49,0,0,1,2.489,2.489Zm-12.043-1.289v.472h.472v-.472Z" transform="translate(-332.863 -224.217)" fill="#3f3d56"/>
  <path id="パス_184" data-name="パス 184" d="M284.188,547.3H256.183a.737.737,0,0,0-.737.734v1.66a99.368,99.368,0,0,0,3.351,10.44h25.392a.734.734,0,0,0,.734-.734V548.037A.735.735,0,0,0,284.188,547.3Z" transform="translate(-240.165 -417.967)" fill="#3dd8cc"/>
  <path id="パス_185" data-name="パス 185" d="M294.966,609.663H273.737c.253.593.51,1.181.777,1.766h20.452A.883.883,0,0,0,294.966,609.663Z" transform="translate(-253.611 -463.808)" fill="#e4e4e4"/>
  <path id="パス_186" data-name="パス 186" d="M300.077,624.941H280.69q.425.889.874,1.766h18.513A.883.883,0,0,0,300.077,624.941Z" transform="translate(-258.722 -475.039)" fill="#e4e4e4"/>
  <path id="パス_187" data-name="パス 187" d="M305.81,640.228h-17.32c.316.593.642,1.181.973,1.766H305.81A.883.883,0,0,0,305.81,640.228Z" transform="translate(-264.455 -486.276)" fill="#e4e4e4"/>
  <path id="パス_188" data-name="パス 188" d="M896.309,229.333h-.135a2.7,2.7,0,0,1,1.206.285h-.612a2.492,2.492,0,0,0-2.489,2.489V238.7a2.492,2.492,0,0,0,2.489,2.489h.39a2.706,2.706,0,0,1-.984.187h.135a2.728,2.728,0,0,0,2.725-2.725v-6.593A2.728,2.728,0,0,0,896.309,229.333Z" transform="translate(-709.766 -184.23)" fill="#3f3d56"/>
  <path id="パス_189" data-name="パス 189" d="M896.309,229.333h-.135a2.7,2.7,0,0,1,1.206.285h-.612a2.492,2.492,0,0,0-2.489,2.489V238.7a2.492,2.492,0,0,0,2.489,2.489h.39a2.706,2.706,0,0,1-.984.187h.135a2.728,2.728,0,0,0,2.725-2.725v-6.593A2.728,2.728,0,0,0,896.309,229.333Z" transform="translate(-709.766 -184.23)" opacity="0.21"/>
  <path id="パス_190" data-name="パス 190" d="M830.347,229.333h-.135a2.7,2.7,0,0,1,1.206.285h-.612a2.492,2.492,0,0,0-2.489,2.489V238.7a2.492,2.492,0,0,0,2.489,2.489h.39a2.707,2.707,0,0,1-.984.187h.135a2.728,2.728,0,0,0,2.725-2.725v-6.593A2.728,2.728,0,0,0,830.347,229.333Z" transform="translate(-661.278 -184.23)" fill="#3dd8cc"/>
  <path id="パス_191" data-name="パス 191" d="M830.347,229.333h-.135a2.7,2.7,0,0,1,1.206.285h-.612a2.492,2.492,0,0,0-2.489,2.489V238.7a2.492,2.492,0,0,0,2.489,2.489h.39a2.707,2.707,0,0,1-.984.187h.135a2.728,2.728,0,0,0,2.725-2.725v-6.593A2.728,2.728,0,0,0,830.347,229.333Z" transform="translate(-661.278 -184.23)" opacity="0.21"/>
  <path id="パス_192" data-name="パス 192" d="M810.307,241.266a2.492,2.492,0,0,1-2.489-2.489v-6.593a2.492,2.492,0,0,1,2.489-2.489h.612a2.7,2.7,0,0,0-1.206-.285H803.12a2.728,2.728,0,0,0-2.725,2.725v6.593a2.728,2.728,0,0,0,2.725,2.725h6.593a2.706,2.706,0,0,0,.984-.187Z" transform="translate(-640.752 -184.287)" fill="#3dd8cc"/>
  <path id="パス_193" data-name="パス 193" d="M876.269,241.266a2.492,2.492,0,0,1-2.489-2.489v-6.593a2.492,2.492,0,0,1,2.489-2.489h.612a2.7,2.7,0,0,0-1.206-.285h-6.593a2.728,2.728,0,0,0-2.725,2.725v6.593a2.728,2.728,0,0,0,2.725,2.725h6.593a2.707,2.707,0,0,0,.985-.187Z" transform="translate(-689.241 -184.287)" fill="#3f3d56"/>
  <path id="パス_194" data-name="パス 194" d="M932.541,235.6a100.865,100.865,0,0,1,6.628,10.4h-4.128a2.729,2.729,0,0,1-2.725-2.725v-6.593A2.723,2.723,0,0,1,932.541,235.6Z" transform="translate(-737.727 -188.84)" fill="#ff6584"/>
  <path id="パス_195" data-name="パス 195" d="M880.109,270.15l-2.309-3.459-1.688-2.529a.939.939,0,0,0-1.679.243l-.711,2.286-1.431,4.593a.941.941,0,0,0,1.393,1.079l.508-.314a.7.7,0,0,1,1.072.536l.465,5.077a.943.943,0,0,0,.935.855c.028,0,.057,0,.087,0l.713-.064a.939.939,0,0,0,.85-1.022l-.479-5.242a.7.7,0,0,1,1-.7l.1.047a.94.94,0,0,0,1.174-1.377Z" transform="translate(-693.571 -209.525)" fill="#ccc"/>
</svg>
