<svg id="undraw_personal_finance_tqcd" xmlns="http://www.w3.org/2000/svg" width="170.663" height="159.612" viewBox="0 0 170.663 159.612">
  <path id="パス_225" data-name="パス 225" d="M826.633,604.414s21.113,1.092,16.2,7.738-17.84-3.9-17.84-3.9Z" transform="translate(-690.706 -491.012)" fill="#ffb8b8"/>
  <path id="パス_226" data-name="パス 226" d="M629.247,313.448l4.3,1.074s2.507,7.521,4.3,14.325,5.372,27.217,5.372,27.217l27.764,19.458-3.311,7.408L630.68,368.353l-8.237-32.344Z" transform="translate(-532.228 -263.352)" fill="#575a89"/>
  <path id="パス_227" data-name="パス 227" d="M435.55,291.607l-1.6,33.542,3.342,9.972-9.791-7.18Z" transform="translate(-334.488 -228.161)" opacity="0.2"/>
  <path id="パス_228" data-name="パス 228" d="M520.109,631.668s4.656,12.534,5.372,21.129,1.432,15.4,1.432,15.4H505.068l-4.3-6.446V668.2H475.344s-7.163-23.278-4.3-26.143,30.083-15.041,30.083-15.041Z" transform="translate(-413.242 -508.693)" fill="#2f2e41"/>
  <rect id="長方形_65" data-name="長方形 65" width="126.409" height="0.435" transform="translate(22.084 159.177)" fill="#3f3d56"/>
  <circle id="楕円形_42" data-name="楕円形 42" cx="13.609" cy="13.609" r="13.609" transform="translate(65.862 9.27)" fill="#ffb8b8"/>
  <path id="パス_229" data-name="パス 229" d="M521.465,214.688l-1.074,15.758L534,248.71l6.8-17.19s-6.088-3.939-2.507-12.176Z" transform="translate(-452.38 -186.079)" fill="#ffb8b8"/>
  <path id="パス_230" data-name="パス 230" d="M483.944,345.83c0,3.224-8.953,8.237-8.953,8.237v1.791l-3.581,1.791-7.878-15.757-2.147,17.188s-15.759,2.509-20.772,0-7.521-1.432-14.684-3.938,2.865-36.171,2.865-36.171l-7.162-51.928,15.648-7.824.825-.413,2.152-.4,3.3-.609,11.024,7.452.888,4.656.546,2.865,2.863-3.224,2.163-7.112,15.387,8.546-4.3,34.379S483.944,342.607,483.944,345.83Z" transform="translate(-375.108 -219.811)" fill="#575a89"/>
  <path id="パス_231" data-name="パス 231" d="M453.193,713.428s16.474,13.251,8.595,15.758-12.176-13.609-12.176-13.609Z" transform="translate(-397.001 -576.307)" fill="#ffb8b8"/>
  <path id="パス_232" data-name="パス 232" d="M386.575,301l-3.581-.716s-5.372,2.865-5.73,8.595-5.014,45.84-5.014,45.84l15.041,40.468,12.176-4.656-11.818-37.961,8.953-32.948Z" transform="translate(-336.47 -253.049)" fill="#575a89"/>
  <circle id="楕円形_43" data-name="楕円形 43" cx="1.305" cy="1.305" r="1.305" transform="translate(79.74 56.266)" fill="#2f2e41"/>
  <circle id="楕円形_44" data-name="楕円形 44" cx="1.305" cy="1.305" r="1.305" transform="translate(79.74 64.751)" fill="#2f2e41"/>
  <circle id="楕円形_45" data-name="楕円形 45" cx="1.305" cy="1.305" r="1.305" transform="translate(87.138 120.667)" fill="#2f2e41"/>
  <path id="パス_233" data-name="パス 233" d="M507.445,92.134l-2.516-1.007s5.26-5.791,12.578-5.287l-2.058-2.266s5.031-2.014,9.605,3.273a44.645,44.645,0,0,1,6.921,9.727h2.694l-1.124,2.476,3.935,2.476-4.039-.445a13.834,13.834,0,0,1,.11,4.107,5.313,5.313,0,0,1-1.946,3.476h0s-3.12-6.458-3.12-7.465v2.518s-2.516-2.266-2.516-3.777L524.6,101.7h-9.148l1.372-2.266-5.26.755,2.058-2.77-8.144,11.437S500.813,95.911,507.445,92.134Z" transform="translate(-439.464 -83.197)" fill="#2f2e41"/>
  <circle id="楕円形_46" data-name="楕円形 46" cx="21.757" cy="21.757" r="21.757" transform="translate(127.149 61.691)" fill="#3f3d56"/>
  <circle id="楕円形_47" data-name="楕円形 47" cx="18.711" cy="18.711" r="18.711" transform="translate(130.195 64.737)" opacity="0.1"/>
  <path id="パス_234" data-name="パス 234" d="M875.018,437.879v-2.723a6.324,6.324,0,0,1-3.632-1.186l.57-1.807a5.8,5.8,0,0,0,3.418,1.159,2.618,2.618,0,0,0,2.825-2.642c0-1.483-.926-2.4-2.682-3.209-2.421-1.078-3.916-2.319-3.916-4.665a4.239,4.239,0,0,1,3.584-4.341v-2.723h1.472v2.616a5.775,5.775,0,0,1,3.086.944l-.594,1.78a5.245,5.245,0,0,0-2.991-.917,2.279,2.279,0,0,0-2.516,2.319c0,1.4.878,2.1,2.943,3.074,2.445,1.132,3.679,2.535,3.679,4.934a4.512,4.512,0,0,1-3.75,4.584v2.8Z" transform="translate(-727.009 -343.389)" fill="#3dd8cc"/>
  <path id="パス_235" data-name="パス 235" d="M250.005,500.905l8.7,27.182L251.744,499.8Z" transform="translate(-195.611 -391.06)" opacity="0.2"/>
  <path id="パス_236" data-name="パス 236" d="M230.766,308.916h-5.523a.909.909,0,0,1-.908-.908v-7.94a.909.909,0,0,1,.908-.908h5.523a.909.909,0,0,1,.908.908v7.94A.909.909,0,0,1,230.766,308.916Zm-5.523-9.321a.473.473,0,0,0-.473.473v7.94a.473.473,0,0,0,.473.473h5.523a.473.473,0,0,0,.473-.473v-7.94a.473.473,0,0,0-.473-.473Z" transform="translate(-220.737 -252.173)" fill="#3f3d56"/>
  <path id="パス_237" data-name="パス 237" d="M278.1,277.879H273.11a1.177,1.177,0,0,1-1.176-1.176V260.669a1.177,1.177,0,0,1,1.176-1.176H278.1a1.177,1.177,0,0,1,1.176,1.176V276.7A1.177,1.177,0,0,1,278.1,277.879Zm-4.988-17.951a.741.741,0,0,0-.741.741V276.7a.741.741,0,0,0,.741.741H278.1a.741.741,0,0,0,.741-.741V260.669a.741.741,0,0,0-.741-.741Z" transform="translate(-257.981 -221.136)" fill="#3f3d56"/>
  <path id="パス_238" data-name="パス 238" d="M325.506,249.326h-4.6a1.37,1.37,0,0,1-1.368-1.368v-23.59A1.37,1.37,0,0,1,320.9,223h4.6a1.37,1.37,0,0,1,1.368,1.368v23.59A1.37,1.37,0,0,1,325.506,249.326Zm-4.6-25.891a.934.934,0,0,0-.933.933v23.59a.934.934,0,0,0,.933.933h4.6a.934.934,0,0,0,.933-.933v-23.59a.934.934,0,0,0-.933-.933Z" transform="translate(-295.224 -192.583)" fill="#3f3d56"/>
  <rect id="長方形_66" data-name="長方形 66" width="4.143" height="6.732" transform="translate(5.196 48.5)" fill="#3dd8cc"/>
  <rect id="長方形_67" data-name="長方形 67" width="4.143" height="15.276" transform="translate(15.552 39.956)" fill="#3dd8cc"/>
  <rect id="長方形_68" data-name="長方形 68" width="4.143" height="23.216" transform="translate(25.908 32.016)" fill="#3dd8cc"/>
  <path id="パス_239" data-name="パス 239" d="M825.956,121.807H797.019a.217.217,0,0,1-.218-.218V92.218a.218.218,0,0,1,.435,0v29.155h28.719a.218.218,0,1,1,0,.435Z" transform="translate(-668.651 -90.085)" fill="#3f3d56"/>
  <path id="パス_240" data-name="パス 240" d="M242.4,233.594H208.019a.218.218,0,0,1-.218-.218V199.218a.218.218,0,1,1,.435,0v33.941H242.4a.218.218,0,0,1,0,.435Z" transform="translate(-207.801 -173.804)" fill="#3f3d56"/>
  <path id="パス_241" data-name="パス 241" d="M820.571,181.383h-5.523a.909.909,0,0,1-.908-.908v-7.94a.909.909,0,0,1,.908-.908h5.523a.909.909,0,0,1,.908.908v7.94A.909.909,0,0,1,820.571,181.383Zm-5.523-9.321a.473.473,0,0,0-.473.473v7.94a.473.473,0,0,0,.473.473h5.523a.473.473,0,0,0,.473-.473v-7.94a.473.473,0,0,0-.473-.473Z" transform="translate(-682.217 -152.387)" fill="#3f3d56"/>
  <path id="パス_242" data-name="パス 242" d="M873.351,156.637h-5.084a1.129,1.129,0,0,1-1.128-1.128V141.128A1.129,1.129,0,0,1,868.267,140h5.084a1.129,1.129,0,0,1,1.128,1.128v14.381A1.129,1.129,0,0,1,873.351,156.637Zm-5.084-16.2a.693.693,0,0,0-.693.693v14.381a.693.693,0,0,0,.693.693h5.084a.693.693,0,0,0,.693-.693V141.128a.693.693,0,0,0-.693-.693Z" transform="translate(-723.686 -127.641)" fill="#3f3d56"/>
  <rect id="長方形_69" data-name="長方形 69" width="4.143" height="6.732" transform="translate(133.421 20.828)" fill="#3dd8cc"/>
  <rect id="長方形_70" data-name="長方形 70" width="4.143" height="13.025" transform="translate(145.052 14.165)" fill="#3dd8cc"/>
  <circle id="楕円形_48" data-name="楕円形 48" cx="1.958" cy="1.958" r="1.958" transform="translate(133.589 13.012)" fill="#3dd8cc"/>
  <circle id="楕円形_49" data-name="楕円形 49" cx="1.958" cy="1.958" r="1.958" transform="translate(145.121 5.614)" fill="#3dd8cc"/>
</svg>
