<svg id="undraw_Reading_re_29f8" xmlns="http://www.w3.org/2000/svg" width="216.42" height="200" viewBox="0 0 216.42 200">
  <path id="パス_4" data-name="パス 4" d="M831.558,578.32l-17.472-25.952s26.46,9.237,23.457,25.952Z" transform="translate(-634.284 -418.121)" fill="#e5e5e5"/>
  <path id="パス_5" data-name="パス 5" d="M319.326,525.649l-.663-.013a153.828,153.828,0,0,1,2.355-21.984c2.868-15.548,7.637-25.758,14.175-30.349l.381.543C320.3,484.57,319.333,525.24,319.326,525.649Z" transform="translate(-304.348 -365.322)" fill="#e5e5e5"/>
  <path id="パス_6" data-name="パス 6" d="M344.326,584.626l-.663-.013c.014-.735.429-18.046,7.244-22.831l.381.543C344.747,566.917,344.329,584.449,344.326,584.626Z" transform="translate(-321.057 -424.409)" fill="#e5e5e5"/>
  <circle id="楕円形_6" data-name="楕円形 6" cx="3.316" cy="3.316" r="3.316" transform="translate(31.682 101.727)" fill="#3dd8cc"/>
  <circle id="楕円形_7" data-name="楕円形 7" cx="3.316" cy="3.316" r="3.316" transform="translate(30.04 130.411)" fill="#3dd8cc"/>
  <path id="パス_7" data-name="パス 7" d="M332.13,467.262a14.731,14.731,0,0,1-1,7.542,13.425,13.425,0,0,1-2.257-14.417A14.731,14.731,0,0,1,332.13,467.262Z" transform="translate(-310.407 -356.879)" fill="#e5e5e5"/>
  <path id="パス_8" data-name="パス 8" d="M358.37,500.681a14.731,14.731,0,0,1-7.6.328,13.425,13.425,0,0,1,13.8-4.734A14.731,14.731,0,0,1,358.37,500.681Z" transform="translate(-325.807 -380.591)" fill="#e5e5e5"/>
  <path id="パス_9" data-name="パス 9" d="M363.321,579.644a10.326,10.326,0,0,1-5.328.23,9.41,9.41,0,0,1,9.675-3.318A10.325,10.325,0,0,1,363.321,579.644Z" transform="translate(-330.635 -434.152)" fill="#e5e5e5"/>
  <path id="パス_10" data-name="パス 10" d="M491.587,631.286H275.833a.332.332,0,1,1,0-.663H491.587a.332.332,0,1,1,0,.663Z" transform="translate(-275.5 -470.173)" fill="#cbcbcb"/>
  <path id="パス_11" data-name="パス 11" d="M346.829,507.511l-2.713,7.062-28.529-7.1,4-10.422Z" transform="translate(-210.251 -331.109)" fill="#ffb7b7"/>
  <path id="パス_12" data-name="パス 12" d="M677.531,674.136l-8.748,22.77-.288-.111a9.495,9.495,0,0,1-5.458-12.268h0l5.343-13.907Z" transform="translate(-533.33 -496.905)" fill="#2f2e41"/>
  <path id="パス_13" data-name="パス 13" d="M528.276,412.112l-12.433,1.164-.617,36.992a6.963,6.963,0,0,0,7.413,6.316l7.883-.543Z" transform="translate(-435.252 -324.609)" fill="#e5e5e5"/>
  <path id="パス_14" data-name="パス 14" d="M668.578,406.4l-8.507-.109-.5,43.954h0A13.691,13.691,0,0,0,673.7,436.034Z" transform="translate(-531.444 -320.735)" fill="#e5e5e5"/>
  <path id="パス_15" data-name="パス 15" d="M532.313,573.639a27.059,27.059,0,0,1-.875,3.767c-.429,1.207-1.092,2.323-1.484,3.543-1.251,3.887.483,8.222,3.253,11.222a18.312,18.312,0,0,0,8.928,5.3,36.425,36.425,0,0,0,7.673.806c7.131.242,14.446.458,21.2-1.834a36.844,36.844,0,0,0,6.16-2.8,4.613,4.613,0,0,0,1.6-1.259,4.4,4.4,0,0,0,.577-2.582c-.015-3.023-.628-6.031-.483-9.05a35.873,35.873,0,0,0,.24-5.011,9.245,9.245,0,0,0-7.065-7.963,19.19,19.19,0,0,0-5.857,0,149.321,149.321,0,0,1-15.242.681c-5.2-.033-10.367-.827-15.541-.91-1.53-.024-1.5.447-1.986,1.928A36.082,36.082,0,0,0,532.313,573.639Z" transform="translate(-444.686 -428.017)" fill="#2f2e41"/>
  <path id="パス_16" data-name="パス 16" d="M447.628,577.568a15.384,15.384,0,0,0-4.28-.455,10.682,10.682,0,0,0-9.917,12.592,17.941,17.941,0,0,0,1.7,4.634,15.484,15.484,0,0,0,4.6,6.077,17.9,17.9,0,0,0,4.057,1.931l11.066,4.169c1.628.613,3.256,1.227,4.9,1.8a95.851,95.851,0,0,0,25.6,5.088,27.715,27.715,0,0,0,7.947-.4,2.587,2.587,0,0,0,1.628-.879,2.789,2.789,0,0,0,.364-1.2l.681-4.767a3.993,3.993,0,0,0-.058-2.01,3.849,3.849,0,0,0-1.839-1.733c-7.275-4.179-15.77-6.484-21.894-12.219-1.442-1.35-2.648-3.49-4.4-4.407-1.986-1.04-4.325-1.634-6.379-2.592C456.906,581.094,452.493,578.686,447.628,577.568Z" transform="translate(-380.531 -434.403)" fill="#2f2e41"/>
  <path id="パス_17" data-name="パス 17" d="M499.919,595.674c3.912,1.226,20.426,9.717,23.257,12.682-.379.137-13.253-7.078-13.639-7.194a77.787,77.787,0,0,1-10.377-3.657c-.671-.31-4.358-1.768-4.191-2.615C495.158,593.936,499.225,595.457,499.919,595.674Z" transform="translate(-421.719 -446.306)" opacity="0.1" style="isolation: isolate"/>
  <path id="パス_18" data-name="パス 18" d="M538.2,373.62l-10.532,8s-11.113.348-10.737,7.451,4.823,40.738,4.823,40.738l.965,11.573,18.3,5.216a59.891,59.891,0,0,0,30.341.65h0l-2.175-11.61s8.808-52.728,3.5-55.05-8.623-1.658-8.623-1.658l-6.651-5.8Z" transform="translate(-436.258 -298.508)" fill="#e5e5e5"/>
  <path id="パス_19" data-name="パス 19" d="M588.674,277.672c0,10.381-9.6,8.811-21.439,8.811s-21.439,1.57-21.439-8.811,4.689-28.781,21.439-28.781C584.562,248.891,588.674,267.292,588.674,277.672Z" transform="translate(-455.538 -215.912)" fill="#2f2e41"/>
  <circle id="楕円形_8" data-name="楕円形 8" cx="14.427" cy="14.427" r="14.427" transform="translate(92.245 55.093) rotate(-45)" fill="#ffb7b7"/>
  <path id="パス_20" data-name="パス 20" d="M559.964,283.645h5.706l2.517-7.048.5,7.048h2.727l1.468-4.112.294,4.112h20.264a15.272,15.272,0,0,0-15.272-15.272h-2.937a15.272,15.272,0,0,0-15.272,15.272Z" transform="translate(-465.009 -228.922)" fill="#2f2e41"/>
  <rect id="長方形_33" data-name="長方形 33" width="28.853" height="34.822" transform="translate(97.317 76.62)" fill="#3dd8cc"/>
  <path id="パス_21" data-name="パス 21" d="M296.381,506.511l2.713,7.062,28.529-7.1-4-10.422Z" transform="translate(-197.456 -330.441)" fill="#ffb7b7"/>
  <path id="パス_22" data-name="パス 22" d="M558.305,669.62l5.343,13.907h0a9.495,9.495,0,0,1-5.458,12.268l-.288.111-8.748-22.77Z" transform="translate(-457.862 -496.237)" fill="#2f2e41"/>
  <path id="パス_23" data-name="パス 23" d="M647.485,569.147a19.917,19.917,0,0,1,7.016-.479,8.806,8.806,0,0,1,5.178,2.027c1.667,1.58,2.2,4.024,2.247,6.321a19.748,19.748,0,0,1-4.292,12.611,11.446,11.446,0,0,1-2.454,2.362,16.155,16.155,0,0,1-3.193,1.539L627.205,603.3a160.115,160.115,0,0,1-19.863,6.846,1.548,1.548,0,0,1-2.067-.721l-.016-.034a51.341,51.341,0,0,1-5.432-9.936.67.67,0,0,1,.3-1.056l17.529-10.072a17.724,17.724,0,0,0,3.568-2.458,8.858,8.858,0,0,0,1.832-2.55c.363-.759.4-2.55.861-3.111s2.009-.593,2.727-.809a24.738,24.738,0,0,0,2.969-1.122c3.921-1.754,7.413-4.3,11.172-6.357a28.664,28.664,0,0,1,6.7-2.775Z" transform="translate(-491.333 -428.686)" fill="#2f2e41"/>
  <path id="パス_24" data-name="パス 24" d="M657.167,589.164c-3.012,2.262-6.911,4.341-9.9,6.663-1.019.792-18,10.339-18.24,11.607,2.785.469,20.523-11.94,23.061-13.178a40.989,40.989,0,0,0,7.017-4.718c.568-.442,2.976-1.77,1.345-2.263C659.536,587,657.846,588.712,657.167,589.164Z" transform="translate(-511.028 -441.388)" opacity="0.1" style="isolation: isolate"/>
  <circle id="楕円形_9" data-name="楕円形 9" cx="10.363" cy="10.363" r="10.363" transform="translate(190.333 39.114)" fill="#f1f1f1" style="isolation: isolate"/>
  <circle id="楕円形_10" data-name="楕円形 10" cx="7.27" cy="7.27" r="7.27" transform="translate(174.247 47.197)" fill="#f1f1f1" style="isolation: isolate"/>
  <circle id="楕円形_11" data-name="楕円形 11" cx="5.829" cy="5.829" r="5.829" transform="translate(41.576 45.321)" fill="#f1f1f1" style="isolation: isolate"/>
  <circle id="楕円形_12" data-name="楕円形 12" cx="4.089" cy="4.089" r="4.089" transform="translate(52.973 52.758)" fill="#f1f1f1" style="isolation: isolate"/>
  <circle id="楕円形_13" data-name="楕円形 13" cx="4.456" cy="4.456" r="4.456" transform="translate(109.476 0)" fill="#f1f1f1" style="isolation: isolate"/>
  <path id="パス_25" data-name="パス 25" d="M537.087,440.427l.4-3.074s14.857,1.085,12.536,4.733-7.959,3.98-7.959,3.98Z" transform="translate(-449.825 -341.546)" fill="#2f2e41" opacity="0.17"/>
  <path id="パス_26" data-name="パス 26" d="M537.9,406.244a5.8,5.8,0,0,1,4.22,2.591h0a5.8,5.8,0,0,1-1.885,8.146,5.576,5.576,0,0,1-.768.377l-9.132,27.933a4.639,4.639,0,1,1-8.343-4.061l9.712-27.623a5.789,5.789,0,0,1,6.2-7.363Z" transform="translate(-439.432 -320.688)" fill="#ffb7b7"/>
  <path id="パス_27" data-name="パス 27" d="M523.187,438.142s5.233,8.94,12.8,4.471l-7.331,28.056h-6.177l-6.39-1.193,1.789-11.592Z" transform="translate(-435.814 -341.993)" fill="#e5e5e5"/>
  <path id="パス_28" data-name="パス 28" d="M641.421,435.682l-4.335-5.951s2.083-6.173,10.162-3.916C647.248,425.815,652.389,437.322,641.421,435.682Z" transform="translate(-516.472 -333.521)" fill="#e5e5e5"/>
  <path id="パス_29" data-name="パス 29" d="M641.421,435.682l-4.335-5.951s2.083-6.173,10.162-3.916C647.248,425.815,652.389,437.322,641.421,435.682Z" transform="translate(-516.472 -333.521)" fill="#2f2e41" opacity="0.17"/>
  <path id="パス_30" data-name="パス 30" d="M636.966,392.758a5.757,5.757,0,0,1,3.1,6.847l9.712,27.623a4.639,4.639,0,1,1-8.343,4.061L632.3,403.356a5.59,5.59,0,0,1-.768-.377,5.8,5.8,0,0,1-1.885-8.146h0a5.8,5.8,0,0,1,4.22-2.591,5.729,5.729,0,0,1,3.1.516Z" transform="translate(-510.849 -311.361)" fill="#ffb7b7"/>
  <path id="パス_31" data-name="パス 31" d="M637.087,430.731s7.152,4.34,10.162-3.916l10.078,26.536-2.995,5.237-.433.036a11.076,11.076,0,0,1-9.48-4.008h0a22,22,0,0,1-4.6-9.775Z" transform="translate(-516.441 -334.451)" fill="#e5e5e5"/>
</svg>
