<svg id="undraw_quality_time_wiyl" xmlns="http://www.w3.org/2000/svg" width="460" height="349.902" viewBox="0 0 460 349.902">
  <rect id="長方形_110" data-name="長方形 110" width="459.886" height="33.966" transform="translate(0.114 315.936)" fill="#e6e6e6"/>
  <path id="パス_323" data-name="パス 323" d="M459.362,606.005H0V604.87H459.568Z" transform="translate(0 -290.041)" fill="#3f3d56"/>
  <path id="パス_324" data-name="パス 324" d="M610.4,244.615v100.55H348.92V244.615A130.743,130.743,0,0,1,472.115,114.089q3.742-.218,7.547-.216c1.445,0,2.884.022,4.313.075a130.294,130.294,0,0,1,88.133,38.22c.706.706,1.4,1.418,2.1,2.14a130.661,130.661,0,0,1,36.2,90.306Z" transform="translate(-249.605 -113.873)" fill="#e6e6e6"/>
  <path id="パス_325" data-name="パス 325" d="M597.469,113.949V345.164H585.608V114.089q3.744-.218,7.548-.216C594.6,113.873,596.04,113.895,597.469,113.949Z" transform="translate(-363.099 -113.873)" fill="#fff"/>
  <path id="パス_326" data-name="パス 326" d="M608.345,203.421h-209.2A131.132,131.132,0,0,1,409.2,191.56H598.29a131.149,131.149,0,0,1,10.055,11.861Z" transform="translate(-273.69 -151.125)" fill="#fff"/>
  <rect id="長方形_111" data-name="長方形 111" width="92.673" height="156.89" transform="translate(248.226 86.262)" fill="#fff"/>
  <rect id="長方形_112" data-name="長方形 112" width="14.018" height="14.018" transform="translate(266.525 112.767)" fill="#e6e6e6"/>
  <rect id="長方形_113" data-name="長方形 113" width="14.018" height="14.018" transform="translate(289.11 112.767)" fill="#e6e6e6"/>
  <rect id="長方形_114" data-name="長方形 114" width="14.018" height="14.018" transform="translate(311.694 112.767)" fill="#e6e6e6"/>
  <rect id="長方形_115" data-name="長方形 115" width="14.018" height="14.018" transform="translate(266.915 144.697)" fill="#e6e6e6"/>
  <rect id="長方形_116" data-name="長方形 116" width="14.018" height="14.018" transform="translate(289.499 144.697)" fill="#e6e6e6"/>
  <rect id="長方形_117" data-name="長方形 117" width="14.018" height="14.018" transform="translate(312.084 144.697)" fill="#e6e6e6"/>
  <rect id="長方形_118" data-name="長方形 118" width="14.018" height="14.018" transform="translate(267.304 176.627)" fill="#e6e6e6"/>
  <rect id="長方形_119" data-name="長方形 119" width="14.018" height="14.018" transform="translate(289.889 176.627)" fill="#e6e6e6"/>
  <rect id="長方形_120" data-name="長方形 120" width="14.018" height="14.018" transform="translate(312.473 176.627)" fill="#e6e6e6"/>
  <rect id="長方形_121" data-name="長方形 121" width="14.018" height="14.018" transform="translate(267.694 208.557)" fill="#e6e6e6"/>
  <rect id="長方形_122" data-name="長方形 122" width="14.018" height="14.018" transform="translate(290.278 208.557)" fill="#e6e6e6"/>
  <rect id="長方形_123" data-name="長方形 123" width="14.018" height="14.018" transform="translate(312.862 208.557)" fill="#e6e6e6"/>
  <rect id="長方形_124" data-name="長方形 124" width="14.018" height="14.018" transform="translate(267.694 208.557)" fill="#e6e6e6"/>
  <rect id="長方形_125" data-name="長方形 125" width="14.018" height="14.018" transform="translate(290.278 208.557)" fill="#e6e6e6"/>
  <rect id="長方形_126" data-name="長方形 126" width="14.018" height="14.018" transform="translate(312.862 208.557)" fill="#e6e6e6"/>
  <circle id="楕円形_55" data-name="楕円形 55" cx="19.32" cy="19.32" r="19.32" transform="translate(111.077 160.75)" fill="#fff"/>
  <path id="パス_327" data-name="パス 327" d="M249.7,345.962h.053l.956,54.776h-2.017Z" transform="translate(-119.251 -165.892)" fill="#fff"/>
  <rect id="長方形_127" data-name="長方形 127" width="0.955" height="3.609" transform="translate(133.523 209.061) rotate(62.234)" fill="#fff"/>
  <circle id="楕円形_56" data-name="楕円形 56" cx="29.38" cy="29.38" r="29.38" transform="translate(157.819 122.169)" fill="#fff"/>
  <path id="パス_328" data-name="パス 328" d="M358.4,291.166h.081l1.453,83.3h-3.067Z" transform="translate(-171.121 -139.617)" fill="#fff"/>
  <rect id="長方形_128" data-name="長方形 128" width="1.453" height="5.489" transform="translate(191.952 195.635) rotate(62.234)" fill="#fff"/>
  <path id="パス_329" data-name="パス 329" d="M394.512,347.432l4.963-3.97c-3.856-.425-5.44,1.677-6.088,3.342-3.012-1.251-6.291.388-6.291.388l9.93,3.605A7.514,7.514,0,0,0,394.512,347.432Z" transform="translate(-267.91 -223.937)" fill="#fff"/>
  <path id="パス_330" data-name="パス 330" d="M494.987,285.282l4.963-3.97c-3.856-.425-5.44,1.677-6.088,3.342-3.012-1.251-6.291.388-6.291.388l9.93,3.605a7.515,7.515,0,0,0-2.514-3.366Z" transform="translate(-316.089 -194.135)" fill="#fff"/>
  <path id="パス_331" data-name="パス 331" d="M456.661,344.324l4.963-3.97c-3.856-.425-5.44,1.677-6.088,3.342-3.012-1.251-6.291.388-6.291.388l9.93,3.605a7.515,7.515,0,0,0-2.514-3.366Z" transform="translate(-297.712 -222.446)" fill="#fff"/>
  <rect id="長方形_129" data-name="長方形 129" width="288.979" height="23.722" transform="translate(85.567 219.43)" fill="#e6e6e6"/>
  <path id="パス_332" data-name="パス 332" d="M200.62,608.98s-58.454-26.91-37.919-45.57S200.62,608.98,200.62,608.98Z" transform="translate(-158.214 -327.8)" fill="#e6e6e6"/>
  <path id="パス_333" data-name="パス 333" d="M229.417,588.585s-26.868-88.279,12.7-84.057S229.417,588.585,229.417,588.585Z" transform="translate(-188.028 -301.125)" fill="#e6e6e6"/>
  <path id="パス_334" data-name="パス 334" d="M199.991,651.116l1.128,14.767.018.255a67.848,67.848,0,0,0,.349,6.9c1.53,15.063,8.109,21.927,15.8,21.927s13.98-6.865,15.51-21.927a67.849,67.849,0,0,0,.349-6.9l.009-.206,0-.049,1.132-14.767Z" transform="translate(-178.192 -371.486)" fill="#e6e6e6"/>
  <path id="パス_335" data-name="パス 335" d="M234.193,679.488l0,.049-.009.206a67.854,67.854,0,0,1-.349,6.9H202.524a67.844,67.844,0,0,1-.349-6.9l-.018-.255Z" transform="translate(-179.231 -385.091)" fill="#fff"/>
  <path id="パス_336" data-name="パス 336" d="M952.043,608.98s-58.454-26.91-37.919-45.57S952.043,608.98,952.043,608.98Z" transform="translate(-518.528 -327.8)" fill="#e6e6e6"/>
  <path id="パス_337" data-name="パス 337" d="M980.84,588.585s-26.868-88.279,12.7-84.057S980.84,588.585,980.84,588.585Z" transform="translate(-548.343 -301.125)" fill="#e6e6e6"/>
  <path id="パス_338" data-name="パス 338" d="M951.414,651.116l1.128,14.767.018.255a67.848,67.848,0,0,0,.349,6.9c1.53,15.063,8.108,21.927,15.8,21.927s13.979-6.865,15.51-21.927a67.831,67.831,0,0,0,.349-6.9l.009-.206,0-.049,1.132-14.767Z" transform="translate(-538.506 -371.486)" fill="#e6e6e6"/>
  <path id="パス_339" data-name="パス 339" d="M985.616,679.488l0,.049-.009.206a67.848,67.848,0,0,1-.349,6.9H953.948a67.849,67.849,0,0,1-.349-6.9l-.018-.255Z" transform="translate(-539.545 -385.091)" fill="#fff"/>
  <path id="パス_340" data-name="パス 340" d="M825.865,739.7l-3.832.45a18.679,18.679,0,0,1-10.515,2.372,3.153,3.153,0,0,1-2.671-1.637h0a3.125,3.125,0,0,1,2.039-4.532l2.912-.678,7.027-6.872,4.239-7.672,6.157.706,1.282,9.745h0A7.543,7.543,0,0,1,825.865,739.7Z" transform="translate(-469.963 -405.058)" fill="#ffb8b8"/>
  <path id="パス_341" data-name="パス 341" d="M711.245,730.422l-3.756.884a18.678,18.678,0,0,1-10.176,3.555,3.154,3.154,0,0,1-2.84-1.322h0a3.125,3.125,0,0,1,1.509-4.735L698.8,727.8l6.2-7.628,3.337-8.1h6.2l2.384,9.535h0a7.543,7.543,0,0,1-5.669,8.822Z" transform="translate(-415.029 -400.712)" fill="#ffb8b8"/>
  <path id="パス_342" data-name="パス 342" d="M716.334,602.836l7.009,1.078,11.052-55.8,19.139-32.618,23.183,94.889L785.344,612c-.967-53.435,3.754-120.708-7.009-128.854l-46.905,5.391L710.943,543.53Z" transform="translate(-423.198 -290.943)" fill="#2f2e41"/>
  <circle id="楕円形_57" data-name="楕円形 57" cx="16.174" cy="16.174" r="16.174" transform="translate(310.928 76.827)" fill="#ffb8b8"/>
  <path id="パス_343" data-name="パス 343" d="M649.6,209.442l-19.409,3.235-4.852-17.253,14.017-4.313Z" transform="translate(-299.857 -91.64)" fill="#ffb8b8"/>
  <path id="パス_344" data-name="パス 344" d="M797.919,411.3l-51.757,4.852c4.149-14.428,7.951-28.806,4.852-43.131-3.935-12.789-.137-20.395,10.244-26.418l7.009-15.635,18.87-2.157h0a40.731,40.731,0,0,1,5.781,26.935C790.229,376.135,790.955,395.058,797.919,411.3Z" transform="translate(-440.086 -216.936)" fill="#e0648e"/>
  <path id="パス_345" data-name="パス 345" d="M765.107,255.429c-5.4,1.233-11.542,2.981-11.886,4.6-5.553,1.4-9.744,4.751-10.6,9.861a3.06,3.06,0,0,0,3.07,3.549c3.02-.039,7.553-.328,10.546-1.578,8.7,5.6,10.155,20.176,6.358,30.1l5.976-.548,6.182-18.1,1.579,17.387,13.637-1.8-1.757-22.171a33.033,33.033,0,0,0-5.188-14.648,12.473,12.473,0,0,0-.976-1.265A17.332,17.332,0,0,0,765.107,255.429Z" transform="translate(-438.369 -181.53)" fill="#2f2e41"/>
  <path id="パス_346" data-name="パス 346" d="M720.044,763.179a1.9,1.9,0,0,0,1.868,2.109l6.065.062a1.293,1.293,0,0,0,1.2-1.29h0a1.293,1.293,0,0,0-.813-1.2l-1.789-.716-2.6-3.643h-2.082a9.536,9.536,0,0,0-1.849,4.669Z" transform="translate(-427.557 -422.978)" fill="#ffb8b8"/>
  <path id="パス_347" data-name="パス 347" d="M683.746,763.179a1.9,1.9,0,0,1-1.868,2.109l-6.065.062a1.293,1.293,0,0,1-1.2-1.29h0a1.293,1.293,0,0,1,.813-1.2l1.789-.716,2.6-3.643H681.9a9.536,9.536,0,0,1,1.849,4.669Z" transform="translate(-405.776 -422.978)" fill="#ffb8b8"/>
  <path id="パス_348" data-name="パス 348" d="M525.5,588.045h3.123l10.93-47.365,5.725,47.885h3.643l4.945-61.678-25.244-.26Z" transform="translate(-251.982 -252.523)" fill="#3f3d56"/>
  <path id="パス_349" data-name="パス 349" d="M656.609,577.047h4.164v-9.889l.947-1.894a2.7,2.7,0,0,0-2-3.873h0a2.7,2.7,0,0,0-3.108,2.667Z" transform="translate(-397.145 -328.447)" fill="#ffb8b8"/>
  <circle id="楕円形_58" data-name="楕円形 58" cx="9.629" cy="9.629" r="9.629" transform="translate(274.559 204.879)" fill="#ffb8b8"/>
  <rect id="長方形_130" data-name="長方形 130" width="9.889" height="11.451" transform="translate(290.174 230.904) rotate(180)" fill="#ffb8b8"/>
  <path id="パス_350" data-name="パス 350" d="M685.212,598.906c8.753,5.4,18.008,4.874,27.586.521l-2.082-48.406-10.93-.521-11.451,1.562-5.725,4.684Z" transform="translate(-409.612 -323.24)" fill="#e0648e"/>
  <path id="パス_351" data-name="パス 351" d="M502.787,473.611l11.451-8.848-3.643-16.135-6.766,12.492-2.082-2.082-6.246,4.684Z" transform="translate(-237.597 -215.121)" fill="#e0648e"/>
  <path id="パス_352" data-name="パス 352" d="M754.8,541.349l-3.642,2.018-4.794-8.65-1.747-1.2a2.7,2.7,0,0,1-.126-4.359h0a2.7,2.7,0,0,1,4.011.826l1.5,2.712Z" transform="translate(-438.785 -312.737)" fill="#ffb8b8"/>
  <path id="パス_353" data-name="パス 353" d="M568,446.748l13.82-7.336,7.26-3.854,1.041-6.246-4.684-4.684-5.725,3.643.521,4.164-6.766-1.041Z" transform="translate(-272.361 -203.613)" fill="#e0648e"/>
  <circle id="楕円形_59" data-name="楕円形 59" cx="11.451" cy="11.451" r="11.451" transform="translate(274.819 199.414)" fill="#2f2e41"/>
  <circle id="楕円形_60" data-name="楕円形 60" cx="5.205" cy="5.205" r="5.205" transform="translate(287.311 192.648)" fill="#2f2e41"/>
  <path id="パス_354" data-name="パス 354" d="M718.96,495.374a5.2,5.2,0,0,0,6.68-7.584,5.2,5.2,0,1,1-7.4,7.121,5.217,5.217,0,0,0,.722.462Z" transform="translate(-426.696 -293.17)" fill="#2f2e41"/>
  <path id="パス_355" data-name="パス 355" d="M769.137,453.8l.358,12.517a6.825,6.825,0,0,1-6.143,6.986h0a6.825,6.825,0,0,1-7.267-8.571l2.809-10.392,8.087-44.209-.539-25.879,17.253-.539-3.235,29.114Z" transform="translate(-444.731 -243.261)" fill="#ffb8b8"/>
  <path id="パス_356" data-name="パス 356" d="M793.538,361.071a27.264,27.264,0,0,0-19.409,0l1.078-21.566a8.626,8.626,0,0,1,8.626-8.626h0a8.626,8.626,0,0,1,8.626,8.626Z" transform="translate(-453.496 -217.93)" fill="#e0648e"/>
</svg>
