<svg xmlns="http://www.w3.org/2000/svg" xmlns:xlink="http://www.w3.org/1999/xlink" viewBox="0 0 570.67 280.68"><defs><style>.cls-1{fill:url(#名称未設定グラデーション_5);}.cls-2{fill:url(#名称未設定グラデーション_5-2);}.cls-3{fill:url(#名称未設定グラデーション_5-3);}.cls-4{fill:url(#名称未設定グラデーション_5-4);}</style><linearGradient id="名称未設定グラデーション_5" x1="444.78" y1="-215.91" x2="-66.82" y2="308.97" gradientUnits="userSpaceOnUse"><stop offset="0" stop-color="#3dd8cc"/><stop offset="0.51" stop-color="#3d87d8"/><stop offset="1" stop-color="#503dd8"/></linearGradient><linearGradient id="名称未設定グラデーション_5-2" x1="653.67" y1="-9.03" x2="130.04" y2="528.2" xlink:href="#名称未設定グラデーション_5"/><linearGradient id="名称未設定グラデーション_5-3" x1="575.37" y1="-94.47" x2="51.74" y2="442.76" xlink:href="#名称未設定グラデーション_5"/><linearGradient id="名称未設定グラデーション_5-4" x1="481.4" y1="-186.87" x2="-37.62" y2="345.63" xlink:href="#名称未設定グラデーション_5"/></defs><g id="レイヤー_2" data-name="レイヤー 2"><g id="レイヤー_1-2" data-name="レイヤー 1"><polygon class="cls-1" points="98.23 280.68 0 280.68 43.84 54.41 98.23 54.41 98.23 280.68"/><polygon class="cls-2" points="570.67 54.41 570.67 0 446.87 0 392.46 54.41 392.46 122.93 446.87 177.34 516.26 177.34 516.26 280.68 570.67 280.68 570.67 177.34 570.67 129.25 570.67 122.93 570.67 60.73 516.26 60.73 516.26 122.93 446.87 122.93 446.87 54.41 570.67 54.41"/><polygon class="cls-3" points="383.51 0 383.51 280.68 329.11 280.68 329.11 54.4 309.5 54.4 309.5 0 383.51 0"/><polygon class="cls-4" points="300.8 0 226.72 0 172.31 0 98.23 0 98.23 54.41 172.31 54.41 172.31 280.68 226.72 280.68 226.72 54.41 300.8 54.41 300.8 0"/></g></g></svg>