<?xml version="1.0" encoding="utf-8"?>
<!-- Generator: Adobe Illustrator 26.0.1, SVG Export Plug-In . SVG Version: 6.00 Build 0)  -->
<svg version="1.1" id="レイヤー_1" xmlns="http://www.w3.org/2000/svg" xmlns:xlink="http://www.w3.org/1999/xlink" x="0px"
	 y="0px" viewBox="0 0 425.2 185.2" style="enable-background:new 0 0 425.2 185.2;" xml:space="preserve">
<style type="text/css">
	.st0{fill:#3DD8CC;}
	.st1{fill:#1F3736;}
</style>
<g>
	<g>
		<polygon class="st0" points="0,21.5 20.1,1.4 0,1.4 		"/>
		<polygon class="st1" points="0,183.8 20.1,183.8 20.1,1.4 0,21.5 		"/>
	</g>
	<polygon class="st0" points="47.5,1.4 47.5,21.4 67.5,1.4 	"/>
	<polygon class="st1" points="47.5,21.4 47.5,21.5 113.8,21.5 113.8,183.8 133.8,183.8 133.8,21.5 200.5,21.5 200.5,1.4 67.5,1.4 	
		"/>
	<polygon class="st0" points="228.4,1.4 228.4,21 248,1.4 	"/>
	<path class="st1" d="M248,1.4L228.4,21v0.5c0,0,11.2,0,20.1,0c0,18.1,0,162.3,0,162.3h20.1V1.4H248z"/>
	<path class="st0" d="M405.1,100.4v27.3c0,20.5-16.9,37.3-36.9,37.3c-20.5,0-37-16.9-37-37.3v-27.1c9.9,8.4,22.8,13.4,37,13.4
		C382.2,114,395.1,108.8,405.1,100.4z"/>
	<path class="st1" d="M408.3,16.9C397.5,6,383.4,0,368.2,0c-31.7,0-57,25.7-57,57c0,17.6,7.8,33.2,20.1,43.6
		c9.9,8.4,22.8,13.4,37,13.4c14.1,0,26.9-5.2,36.9-13.6v27.3c0,20.5-16.9,37.3-36.9,37.3c-20.5,0-37-16.9-37-37.3h-20.1
		c0,31.7,25.3,57.4,57,57.4c31.3,0,57-25.7,57-57.4V57C425.2,41.8,419.2,27.7,408.3,16.9z M368.2,20.1c9.6,0,18.9,4,26.1,10.8
		c6.8,7.2,10.8,16.5,10.8,26.1c0,20.5-16.9,37-36.9,37c-20.5,0-37-16.5-37-37C331.2,36.9,347.7,20.1,368.2,20.1z"/>
</g>
</svg>
